P2
8 8
255
15 15 15 15 15 15 15 15 
31 31 31 31 31 31 31 31 
47 47 47 47 47 47 47 47 
63 63 63 63 63 63 63 63 
79 79 79 79 79 79 79 79 
95 95 95 95 95 95 95 95 
111 111 111 111 111 111 111 111 
127 127 127 127 127 127 127 127 
